<?xml version="1.0" standalone="no"?>
<!DOCTYPE svg PUBLIC "-//W3C//DTD SVG 20010904//EN"
 "http://www.w3.org/TR/2001/REC-SVG-20010904/DTD/svg10.dtd">
<svg version="1.0" xmlns="http://www.w3.org/2000/svg"
 width="2048.000000pt" height="2048.000000pt" viewBox="0 0 2048.000000 2048.000000"
 preserveAspectRatio="xMidYMid meet">
<metadata>
Created by potrace 1.11, written by Peter Selinger 2001-2013
</metadata>
<g transform="translate(0.000000,2048.000000) scale(0.100000,-0.100000)"
fill="#000000" stroke="none">
<path d="M5353 16618 c-6 -7 -22 -44 -37 -83 -15 -38 -33 -86 -41 -105 -16
-41 -165 -442 -202 -545 -14 -38 -31 -83 -38 -100 -11 -25 -105 -278 -190
-510 -84 -227 -378 -1017 -390 -1045 -13 -32 -340 -908 -369 -990 -25 -69
-128 -346 -157 -420 -16 -41 -146 -390 -289 -775 -144 -385 -274 -734 -289
-775 l-28 -75 -1648 -3 c-1198 -1 -1652 -5 -1662 -13 -20 -17 -20 -2111 1
-2131 11 -12 216 -14 1255 -14 790 1 1241 -3 1241 -9 0 -8 -304 -829 -385
-1040 -30 -78 -589 -1577 -625 -1675 -15 -41 -64 -174 -110 -295 -45 -121
-151 -407 -236 -635 -85 -228 -161 -431 -169 -450 -66 -164 -245 -662 -245
-682 0 -18 7 -27 23 -32 12 -3 569 -6 1238 -6 984 0 1219 2 1227 13 6 7 33 78
60 157 28 80 116 336 197 570 81 234 169 488 195 565 27 77 90 259 140 405 51
146 116 335 145 420 30 85 94 272 143 415 50 143 134 386 187 540 53 154 121
350 150 435 64 184 201 580 315 915 75 219 115 306 177 384 5 6 883 7 893 1
24 -16 102 -158 128 -235 17 -49 63 -182 102 -295 40 -113 78 -223 85 -245 17
-50 88 -257 195 -565 45 -129 90 -260 100 -290 10 -30 51 -147 90 -260 39
-113 80 -230 90 -260 43 -127 191 -556 197 -570 3 -8 7 -19 9 -25 2 -9 127
-372 215 -625 22 -63 49 -140 59 -170 10 -30 55 -161 100 -290 45 -129 90
-260 100 -290 10 -30 54 -158 98 -285 44 -126 92 -266 107 -310 15 -44 32 -86
37 -92 14 -17 2428 -19 2459 -3 29 16 23 53 -27 167 -8 17 -14 34 -14 39 0 4
-13 41 -30 83 -16 42 -52 137 -79 211 -27 74 -54 146 -60 160 -5 14 -40 106
-77 205 -36 99 -108 295 -160 435 -52 140 -101 271 -109 290 -8 19 -77 204
-154 410 -160 432 -339 911 -417 1120 -30 80 -57 152 -59 160 -2 8 -40 110
-84 225 -72 192 -357 954 -418 1120 -14 39 -32 84 -39 102 -8 17 -17 44 -20
60 l-6 28 2064 -1 2063 0 1 -2397 c1 -1927 3 -2399 14 -2412 11 -13 131 -15
1076 -15 l1064 0 2 2412 3 2412 2973 0 2972 0 0 1078 0 1078 -2975 0 -2975 0
0 1194 c0 946 3 1195 13 1198 6 2 976 3 2155 3 1487 -1 2142 2 2143 10 1 13 1
2012 0 2046 l-1 25 -3220 0 c-2499 -1 -3222 -4 -3231 -13 -9 -9 -12 -514 -12
-2238 l0 -2225 -2470 2 -2470 3 -84 225 c-46 124 -88 234 -93 245 -5 11 -74
198 -155 415 -80 217 -159 429 -175 470 -15 41 -94 253 -175 470 -81 217 -157
422 -170 455 -13 33 -48 128 -78 210 -30 83 -60 161 -65 175 -6 14 -20 52 -32
85 -12 33 -26 69 -30 80 -5 11 -27 72 -50 135 -23 63 -46 124 -50 135 -13 28
-230 613 -230 618 0 3 -8 22 -17 43 -9 22 -17 44 -19 49 -1 6 -43 120 -94 255
-50 135 -131 351 -180 480 -48 129 -104 280 -124 335 -20 55 -41 111 -47 125
-6 14 -35 90 -64 170 -76 210 -100 260 -123 260 -11 0 -24 -6 -29 -12z"/>
</g>
</svg>
