<svg width="16" height="16" viewBox="0 0 16 16" fill="none" xmlns="http://www.w3.org/2000/svg">
<g clip-path="url(#clip0)">
<path d="M15.4438 6.93438L13.575 5.66875L14.0031 3.44999C14.0844 3.03749 13.9531 2.61249 13.6562 2.31249C13.3562 2.01562 12.9312 1.88437 12.525 1.96562L10.3094 2.39374L9.04688 0.521864C8.575 -0.175013 7.425 -0.175013 6.95312 0.521864L5.69063 2.39374L3.47813 1.96562C3.0625 1.88749 2.64062 2.01562 2.34375 2.31562C2.04688 2.61562 1.91563 3.03749 1.99688 3.44999L2.425 5.66875L0.55625 6.93438C0.20625 7.17188 0 7.5625 0 7.98438C0 8.40625 0.209375 8.79688 0.55625 9.03125L2.425 10.2969L1.99688 12.5156C1.91563 12.9281 2.04688 13.3531 2.34375 13.65C2.64062 13.9469 3.05938 14.0781 3.47813 13.9969L5.69063 13.5688L6.95312 15.4406C7.1875 15.7906 7.58125 16 8 16C8.41875 16 8.8125 15.7906 9.04688 15.4438L10.3094 13.5719L12.525 14C12.9437 14.0844 13.3625 13.95 13.6594 13.6531C13.9563 13.3563 14.0844 12.9313 14.0063 12.5188L13.5781 10.3L15.4469 9.03438C15.7937 8.8 16.0031 8.40625 16.0031 7.9875C16 7.5625 15.7938 7.17188 15.4438 6.93438ZM11.9156 9.60938L12.4656 12.4594L9.62187 11.9094L8 14.3125L6.37813 11.9063L3.5375 12.4563L4.0875 9.60626L1.6875 7.98125L4.0875 6.35625L3.5375 3.50624L6.38125 4.05625L8 1.65624L9.62187 4.05937L12.4656 3.50937L11.9156 6.35625L14.3156 7.98125L11.9156 9.60938ZM8 4.75C6.20937 4.75 4.75 6.20937 4.75 8C4.75 9.79063 6.20937 11.25 8 11.25C9.79062 11.25 11.25 9.79063 11.25 8C11.25 6.20937 9.79062 4.75 8 4.75ZM8 9.75001C7.03438 9.75001 6.25 8.96563 6.25 8C6.25 7.03438 7.03438 6.25 8 6.25C8.96562 6.25 9.75 7.03438 9.75 8C9.75 8.96563 8.96562 9.75001 8 9.75001Z" fill="#F3F4F7"/>
</g>
<defs>
<clipPath id="clip0">
<rect width="16" height="16" fill="white"/>
</clipPath>
</defs>
</svg>
